<?xml version="1.0" encoding="UTF-8" standalone="no"?>
<svg
   xmlns:dc="http://purl.org/dc/elements/1.1/"
   xmlns:cc="http://creativecommons.org/ns#"
   xmlns:rdf="http://www.w3.org/1999/02/22-rdf-syntax-ns#"
   xmlns:svg="http://www.w3.org/2000/svg"
   xmlns="http://www.w3.org/2000/svg"
   viewBox="0 0 2560 1440"
   height="1440"
   width="2560"
   xml:space="preserve"
   id="svg2"
   version="1.1"><metadata
     id="metadata8"><rdf:RDF><cc:Work
         rdf:about=""><dc:format>image/svg+xml</dc:format><dc:type
           rdf:resource="http://purl.org/dc/dcmitype/StillImage" /></cc:Work></rdf:RDF></metadata><defs
     id="defs6"><clipPath
       id="clipPath18"
       clipPathUnits="userSpaceOnUse"><path
         id="path16"
         d="M 0,0 H 1920 V 1080 H 0 Z" /></clipPath><clipPath
       id="clipPath38"
       clipPathUnits="userSpaceOnUse"><path
         id="path36"
         d="M 0,0 H 1920 V 1080 H 0 Z" /></clipPath><clipPath
       id="clipPath58"
       clipPathUnits="userSpaceOnUse"><path
         id="path56"
         d="M 0,0 H 1920 V 1080 H 0 Z" /></clipPath><clipPath
       id="clipPath80"
       clipPathUnits="userSpaceOnUse"><path
         id="path78"
         d="M 0,0 H 1920 V 1080 H 0 Z" /></clipPath><clipPath
       id="clipPath96"
       clipPathUnits="userSpaceOnUse"><path
         id="path94"
         d="M 0,0 H 1920 V 1080 H 0 Z" /></clipPath><clipPath
       id="clipPath120"
       clipPathUnits="userSpaceOnUse"><path
         id="path118"
         d="M 0,0 H 1920 V 1080 H 0 Z" /></clipPath><clipPath
       id="clipPath136"
       clipPathUnits="userSpaceOnUse"><path
         id="path134"
         d="M 0,0 H 1920 V 1080 H 0 Z" /></clipPath></defs><g
     transform="matrix(1.3333333,0,0,-1.3333333,0,1440)"
     id="g10"><g
       id="g12"><g
         clip-path="url(#clipPath18)"
         id="g14"><g
           transform="translate(962.3835,629.103)"
           id="g20"><path
             id="path22"
             style="fill:#2c2e63;fill-opacity:1;fill-rule:nonzero;stroke:none"
             d="m 0,0 h 40.362 c 26.734,0 42.809,-16.775 42.809,-40.364 0,-23.762 -16.075,-40.535 -42.809,-40.535 H 15.027 v -43.16 H 0 Z m 39.14,-66.747 c 17.472,0 28.655,8.912 28.655,26.383 0,17.474 -11.183,26.385 -28.655,26.385 H 15.027 v -52.768 z" /></g><g
           transform="translate(1115.7903,533.5259)"
           id="g24"><path
             id="path26"
             style="fill:#2c2e63;fill-opacity:1;fill-rule:nonzero;stroke:none"
             d="m 0,0 12.406,5.766 c 3.495,-12.931 14.328,-22.016 29.18,-22.016 13.105,0 24.462,7.163 24.462,21.317 0,12.756 -9.086,18.347 -23.589,24.113 l -8.211,3.145 C 16.076,39.664 5.067,49.798 5.067,65.873 c 0,19.22 15.551,31.451 35.645,31.451 20.444,0 32.499,-12.405 37.392,-25.859 L 66.572,65.522 c -4.892,11.185 -12.93,17.999 -25.51,17.999 -11.882,0 -20.968,-6.641 -20.968,-17.822 0,-8.738 5.242,-15.553 19.92,-21.319 L 48.4,41.061 C 68.669,33.023 81.424,23.937 81.424,4.892 81.424,-17.997 62.379,-30.229 41.586,-30.229 20.618,-30.229 4.193,-17.823 0,0" /></g></g></g><g
       transform="translate(1272.6936,629.103)"
       id="g28"><path
         id="path30"
         style="fill:#2c2e63;fill-opacity:1;fill-rule:nonzero;stroke:none"
         d="M 0,0 H 66.571 V -13.979 H 15.026 V -54.866 H 58.883 V -68.669 H 15.026 v -41.412 h 53.118 v -13.978 H 0 Z" /></g><g
       id="g32"><g
         clip-path="url(#clipPath38)"
         id="g34"><g
           transform="translate(1409.3289,567.0728)"
           id="g40"><path
             id="path42"
             style="fill:#2c2e63;fill-opacity:1;fill-rule:nonzero;stroke:none"
             d="m 0,0 c 0,37.918 28.655,63.777 63.252,63.777 15.201,0 34.945,-5.068 48.4,-24.288 L 100.819,31.452 C 90.509,45.255 75.832,49.275 63.601,49.275 36.867,49.275 15.376,29.879 15.376,0 c 0,-29.878 21.666,-49.797 48.225,-49.797 20.444,0 38.791,11.708 41.76,38.091 H 70.241 V 1.049 h 49.798 C 123.184,-39.488 95.751,-63.775 62.902,-63.775 28.655,-63.775 0,-37.916 0,0" /></g><g
           transform="translate(959.2124,409.5972)"
           id="g44"><path
             id="path46"
             style="fill:#5dc2d7;fill-opacity:1;fill-rule:nonzero;stroke:none"
             d="m 0,0 h 9.9 c 6.558,0 10.501,-4.114 10.501,-9.9 0,-5.827 -3.943,-9.941 -10.501,-9.941 H 3.685 V -30.429 H 0 Z m 9.6,-16.371 c 4.286,0 7.029,2.186 7.029,6.471 0,4.287 -2.743,6.471 -7.029,6.471 H 3.685 v -12.942 z" /></g></g></g><g
       transform="translate(998.3406,409.5972)"
       id="g48"><path
         id="path50"
         style="fill:#5dc2d7;fill-opacity:1;fill-rule:nonzero;stroke:none"
         d="M 0,0 H 16.329 V -3.429 H 3.686 v -10.028 h 10.757 v -3.385 H 3.686 V -27 h 13.028 v -3.429 H 0 Z" /></g><g
       id="g52"><g
         clip-path="url(#clipPath58)"
         id="g54"><g
           transform="translate(1032.926,386.1548)"
           id="g60"><path
             id="path62"
             style="fill:#5dc2d7;fill-opacity:1;fill-rule:nonzero;stroke:none"
             d="m 0,0 3.042,1.415 c 0.857,-3.171 3.515,-5.402 7.158,-5.402 3.215,0 6,1.758 6,5.23 0,3.128 -2.228,4.499 -5.786,5.916 L 8.399,7.928 c -4.457,1.8 -7.156,4.287 -7.156,8.229 0,4.716 3.814,7.715 8.743,7.715 5.014,0 7.972,-3.044 9.171,-6.344 l -2.828,-1.455 c -1.2,2.743 -3.172,4.414 -6.258,4.414 -2.914,0 -5.143,-1.629 -5.143,-4.372 0,-2.144 1.286,-3.815 4.886,-5.228 l 2.058,-0.815 c 4.971,-1.972 8.1,-4.201 8.1,-8.873 0,-5.615 -4.672,-8.615 -9.772,-8.615 C 5.057,-7.416 1.029,-4.372 0,0" /></g><g
           transform="translate(1094.469,381.0537)"
           id="g64"><path
             id="path66"
             style="fill:#5dc2d7;fill-opacity:1;fill-rule:nonzero;stroke:none"
             d="m 0,0 c -2.4,-1.5 -5.271,-2.315 -8.229,-2.315 -8.271,0 -15.472,6.301 -15.472,15.645 0,9.343 7.201,15.643 15.472,15.643 C 0,28.973 7.2,22.673 7.2,13.33 7.2,8.657 5.4,4.758 2.615,2.057 L 5.786,-1.885 H 1.543 Z m -8.229,1.243 c 2.101,0 4.158,0.557 5.915,1.587 l -6.472,7.971 H -4.5 L 0.257,4.929 c 1.972,2.057 3.172,4.929 3.172,8.401 0,7.371 -5.529,12.086 -11.658,12.086 -6.172,0 -11.7,-4.715 -11.7,-12.086 0,-7.371 5.528,-12.087 11.7,-12.087" /></g><g
           transform="translate(1120.825,390.0552)"
           id="g68"><path
             id="path70"
             style="fill:#5dc2d7;fill-opacity:1;fill-rule:nonzero;stroke:none"
             d="m 0,0 v 19.542 h 3.685 v -19.5 c 0,-5.399 3.301,-7.843 7.243,-7.843 3.901,0 7.2,2.444 7.2,7.843 v 19.5 h 3.686 V 0 c 0,-7.286 -4.757,-11.316 -10.886,-11.316 C 4.756,-11.316 0,-7.286 0,0" /></g></g></g><path
       id="path72"
       style="fill:#5dc2d7;fill-opacity:1;fill-rule:nonzero;stroke:none"
       d="m 1162.224,409.597 h 3.685 v -30.429 h -3.685 z" /><g
       id="g74"><g
         clip-path="url(#clipPath80)"
         id="g76"><g
           transform="translate(1184.4231,386.1548)"
           id="g82"><path
             id="path84"
             style="fill:#5dc2d7;fill-opacity:1;fill-rule:nonzero;stroke:none"
             d="m 0,0 3.043,1.415 c 0.857,-3.171 3.515,-5.402 7.158,-5.402 3.215,0 6,1.758 6,5.23 0,3.128 -2.229,4.499 -5.786,5.916 L 8.401,7.928 c -4.457,1.8 -7.157,4.287 -7.157,8.229 0,4.716 3.814,7.715 8.743,7.715 5.014,0 7.971,-3.044 9.171,-6.344 L 16.33,16.073 c -1.2,2.743 -3.172,4.414 -6.258,4.414 -2.914,0 -5.143,-1.629 -5.143,-4.372 0,-2.144 1.286,-3.815 4.886,-5.228 l 2.058,-0.815 c 4.971,-1.972 8.1,-4.201 8.1,-8.873 0,-5.615 -4.672,-8.615 -9.772,-8.615 C 5.058,-7.416 1.028,-4.372 0,0" /></g></g></g><g
       transform="translate(1235.9812,409.5972)"
       id="g86"><path
         id="path88"
         style="fill:#5dc2d7;fill-opacity:1;fill-rule:nonzero;stroke:none"
         d="M 0,0 12.086,-30.429 H 8.1 l -2.743,7.03 h -14.4 l -2.743,-7.03 h -3.986 L -3.686,0 Z M 4.028,-19.97 -1.843,-4.755 -7.714,-19.97 Z" /></g><g
       id="g90"><g
         clip-path="url(#clipPath96)"
         id="g92"><g
           transform="translate(1289.2083,394.3838)"
           id="g98"><path
             id="path100"
             style="fill:#5dc2d7;fill-opacity:1;fill-rule:nonzero;stroke:none"
             d="m 0,0 c 0,9.299 6.986,15.643 15.515,15.643 3.729,0 8.572,-1.243 11.872,-5.957 l -2.7,-1.971 c -2.528,3.384 -6.129,4.371 -9.086,4.371 -6.515,0 -11.83,-4.8 -11.83,-12.086 0,-7.329 5.315,-12.087 11.873,-12.087 2.957,0 6.515,0.986 9.043,4.372 l 2.7,-1.971 c -3.3,-4.714 -8.1,-5.959 -11.872,-5.959 C 6.986,-15.645 0,-9.299 0,0" /></g></g></g><g
       transform="translate(1335.3225,409.5972)"
       id="g102"><path
         id="path104"
         style="fill:#5dc2d7;fill-opacity:1;fill-rule:nonzero;stroke:none"
         d="m 0,0 h 3.686 v -27 h 13.329 v -3.429 H 0 Z" /></g><path
       id="path106"
       style="fill:#5dc2d7;fill-opacity:1;fill-rule:nonzero;stroke:none"
       d="m 1371.065,409.597 h 3.686 v -30.429 h -3.686 z m 4.371,9.43 h 3.129 l -4.029,-6.642 h -3.043 z" /><g
       transform="translate(1394.3357,409.5972)"
       id="g108"><path
         id="path110"
         style="fill:#5dc2d7;fill-opacity:1;fill-rule:nonzero;stroke:none"
         d="M 0,0 H 3.729 L 20.786,-24.257 H 21 V 0 h 3.687 V -30.429 H 20.958 L 3.899,-6.172 H 3.686 V -30.429 H 0 Z" /></g><path
       id="path112"
       style="fill:#5dc2d7;fill-opacity:1;fill-rule:nonzero;stroke:none"
       d="m 1438.606,409.597 h 3.686 v -30.429 h -3.686 z" /><g
       id="g114"><g
         clip-path="url(#clipPath120)"
         id="g116"><g
           transform="translate(1461.448,394.3838)"
           id="g122"><path
             id="path124"
             style="fill:#5dc2d7;fill-opacity:1;fill-rule:nonzero;stroke:none"
             d="m 0,0 c 0,9.299 6.986,15.643 15.515,15.643 3.728,0 8.572,-1.243 11.872,-5.957 l -2.7,-1.971 c -2.528,3.384 -6.129,4.371 -9.086,4.371 -6.515,0 -11.83,-4.8 -11.83,-12.086 0,-7.329 5.315,-12.087 11.873,-12.087 2.957,0 6.515,0.986 9.043,4.372 l 2.7,-1.971 c -3.3,-4.714 -8.1,-5.959 -11.872,-5.959 C 6.986,-15.645 0,-9.299 0,0" /></g></g></g><g
       transform="translate(1520.7639,409.5972)"
       id="g126"><path
         id="path128"
         style="fill:#5dc2d7;fill-opacity:1;fill-rule:nonzero;stroke:none"
         d="M 0,0 12.085,-30.429 H 8.1 l -2.743,7.03 h -14.4 l -2.744,-7.03 h -3.985 L -3.687,0 Z M 4.028,-19.97 -1.843,-4.755 -7.715,-19.97 Z" /></g><g
       id="g130"><g
         clip-path="url(#clipPath136)"
         id="g132"><g
           transform="translate(628.0212,460.4995)"
           id="g138"><path
             id="path140"
             style="fill:#2174b5;fill-opacity:1;fill-rule:nonzero;stroke:none"
             d="m 0,0 c -5.424,0 -10.421,3.405 -12.014,8.645 -1.933,6.358 1.881,13.016 8.519,14.867 0.479,0.133 0.956,0.272 1.429,0.416 C 4.535,25.93 11.561,22.432 13.65,16.118 15.739,9.804 12.089,3.063 5.5,1.062 4.838,0.861 4.172,0.668 3.505,0.481 2.337,0.156 1.158,0 0,0 m -44.003,0.885 c -1.325,0 -2.674,0.203 -3.999,0.63 -0.66,0.214 -1.317,0.435 -1.972,0.661 -6.498,2.264 -9.852,9.144 -7.49,15.369 2.361,6.226 9.547,9.435 16.041,7.176 0.469,-0.163 0.941,-0.321 1.416,-0.474 6.551,-2.115 10.073,-8.917 7.866,-15.195 -1.761,-5.007 -6.637,-8.167 -11.862,-8.167 m 81.759,23.818 c -2.674,0 -5.367,0.817 -7.646,2.505 -5.47,4.05 -6.479,11.581 -2.251,16.823 0.3,0.371 0.596,0.748 0.885,1.128 4.092,5.341 11.923,6.497 17.497,2.58 5.577,-3.916 6.782,-11.422 2.696,-16.763 C 48.521,30.434 48.1,29.896 47.67,29.365 45.204,26.306 41.5,24.703 37.756,24.703 m -118.399,2.382 c -3.922,0 -7.783,1.761 -10.223,5.06 -0.407,0.55 -0.807,1.105 -1.198,1.666 -3.849,5.502 -2.314,12.952 3.428,16.64 5.749,3.69 13.522,2.215 17.368,-3.286 0.273,-0.388 0.547,-0.771 0.828,-1.151 3.998,-5.405 2.665,-12.891 -2.976,-16.72 -2.197,-1.492 -4.724,-2.209 -7.227,-2.209 M 53.021,65.988 c -0.099,0 -0.199,0.001 -0.298,0.003 -6.912,0.155 -12.384,5.65 -12.222,12.272 0.012,0.476 0.018,0.953 0.018,1.431 0,6.624 5.604,11.993 12.518,11.993 6.914,0 12.518,-5.369 12.518,-11.993 0,-0.667 -0.009,-1.331 -0.024,-1.994 C 65.37,71.174 59.799,65.988 53.021,65.988 m -147.095,2.956 c -0.074,0 -0.149,0.002 -0.224,0.002 -6.912,0.117 -12.417,5.579 -12.297,12.201 0.013,0.668 0.034,1.333 0.062,1.997 0.284,6.617 6.07,11.776 13.021,11.49 6.909,-0.272 12.279,-5.858 11.994,-12.476 -0.021,-0.476 -0.035,-0.952 -0.043,-1.43 -0.121,-6.551 -5.702,-11.784 -12.513,-11.784 M 41.34,105.865 c -4.113,0 -8.141,1.938 -10.535,5.497 -0.264,0.392 -0.533,0.781 -0.807,1.165 -3.894,5.473 -2.422,12.934 3.289,16.666 5.712,3.731 13.5,2.323 17.396,-3.149 0.396,-0.558 0.784,-1.119 1.166,-1.687 3.746,-5.568 2.072,-12.99 -3.739,-16.578 -2.097,-1.296 -4.448,-1.914 -6.77,-1.914 m -120.465,4.459 c -2.644,0 -5.308,0.798 -7.573,2.449 -5.501,4.012 -6.568,11.536 -2.38,16.808 0.424,0.533 0.854,1.062 1.291,1.584 4.322,5.168 12.198,6.007 17.595,1.865 5.398,-4.14 6.269,-11.687 1.947,-16.858 -0.307,-0.369 -0.611,-0.741 -0.91,-1.117 -2.462,-3.101 -6.194,-4.731 -9.97,-4.731 m 84.99,23.181 c -1.495,0 -3.013,0.258 -4.491,0.802 -0.46,0.171 -0.923,0.335 -1.39,0.493 -6.514,2.222 -9.914,9.082 -7.595,15.322 2.319,6.24 9.478,9.502 15.992,7.275 0.662,-0.224 1.32,-0.459 1.977,-0.7 6.453,-2.377 9.673,-9.315 7.194,-15.497 -1.913,-4.768 -6.658,-7.695 -11.687,-7.695 m -47.398,1.756 c -5.4,0 -10.383,3.374 -11.997,8.587 -1.966,6.35 1.813,13.024 8.443,14.908 0.663,0.189 1.33,0.371 2.003,0.546 6.673,1.734 13.547,-2.044 15.358,-8.437 1.809,-6.392 -2.133,-12.98 -8.805,-14.714 -0.481,-0.125 -0.959,-0.255 -1.438,-0.391 -1.187,-0.338 -2.385,-0.499 -3.564,-0.499" /></g><g
           transform="translate(608.5713,402.3701)"
           id="g142"><path
             id="path144"
             style="fill:#5dc2d7;fill-opacity:1;fill-rule:nonzero;stroke:none"
             d="m 0,0 c -0.223,-0.009 -0.449,-0.015 -0.674,-0.015 -0.727,-0.004 -1.451,-0.002 -2.173,0.008 -8.955,0.106 -16.122,7.145 -16.012,15.723 0.112,8.576 7.445,15.447 16.411,15.339 0.547,-0.006 1.095,-0.007 1.643,-0.006 8.954,0.034 16.242,-6.891 16.278,-15.47 C 15.508,7.218 8.64,0.373 0,0 m 63.698,16.478 c -5.842,-0.252 -11.626,2.543 -14.765,7.726 -4.492,7.421 -1.856,16.925 5.889,21.23 0.474,0.264 0.946,0.531 1.416,0.802 7.671,4.425 17.634,2.045 22.249,-5.305 4.615,-7.351 2.136,-16.895 -5.538,-21.317 -0.616,-0.355 -1.233,-0.706 -1.856,-1.052 -2.337,-1.298 -4.871,-1.975 -7.395,-2.084 m -129.159,0.591 c -3.047,-0.131 -6.166,0.558 -8.984,2.16 -0.617,0.35 -1.229,0.704 -1.839,1.063 -7.633,4.483 -10.028,14.046 -5.348,21.36 4.682,7.315 14.663,9.611 22.296,5.124 0.476,-0.279 0.953,-0.555 1.432,-0.828 7.701,-4.376 10.242,-13.906 5.673,-21.283 -2.896,-4.678 -7.953,-7.369 -13.23,-7.596 m 176.655,45.77 c -2.899,-0.124 -5.867,0.494 -8.59,1.944 -7.827,4.167 -10.645,13.624 -6.294,21.122 0.271,0.467 0.54,0.935 0.803,1.406 4.236,7.559 14.063,10.394 21.954,6.338 7.887,-4.058 10.85,-13.474 6.614,-21.032 -0.339,-0.604 -0.684,-1.206 -1.03,-1.803 -2.836,-4.89 -8.024,-7.739 -13.457,-7.975 m -223.715,1.003 c -5.998,-0.259 -11.913,2.698 -14.977,8.091 -0.346,0.609 -0.688,1.218 -1.023,1.831 -4.152,7.6 -1.088,16.986 6.846,20.965 7.931,3.979 17.727,1.042 21.882,-6.557 0.253,-0.463 0.509,-0.922 0.77,-1.38 4.282,-7.533 1.38,-16.968 -6.483,-21.07 -2.236,-1.166 -4.631,-1.777 -7.015,-1.88 m 239.76,55.174 c -0.079,-0.005 -0.159,-0.007 -0.241,-0.01 -8.951,-0.259 -16.425,6.482 -16.696,15.056 -0.017,0.531 -0.036,1.063 -0.061,1.598 -0.403,8.569 6.523,15.828 15.467,16.215 8.945,0.384 16.523,-6.251 16.925,-14.82 0.032,-0.685 0.059,-1.371 0.08,-2.054 0.268,-8.496 -6.638,-15.605 -15.474,-15.985 m -255.157,8.1 c -0.447,-0.02 -0.896,-0.021 -1.348,-0.005 -8.948,0.318 -15.933,7.526 -15.601,16.098 0.027,0.687 0.061,1.372 0.097,2.056 0.465,8.567 8.099,15.151 17.033,14.705 8.942,-0.445 15.813,-7.751 15.348,-16.318 -0.029,-0.531 -0.054,-1.063 -0.074,-1.595 -0.316,-8.139 -7.113,-14.582 -15.455,-14.941 m 244.161,48.028 c -6.574,-0.57 -13.116,2.77 -16.111,8.814 -0.236,0.476 -0.475,0.946 -0.717,1.417 -3.97,7.689 -0.681,17.006 7.344,20.809 8.023,3.802 17.751,0.653 21.72,-7.036 0.321,-0.621 0.638,-1.245 0.948,-1.871 3.838,-7.751 0.392,-17.015 -7.698,-20.693 -1.777,-0.808 -3.633,-1.279 -5.486,-1.44 m -223.626,13.886 c -3.27,-0.142 -6.611,0.66 -9.562,2.502 -7.504,4.68 -9.626,14.303 -4.739,21.492 0.395,0.584 0.799,1.165 1.206,1.745 5.012,7.107 15.092,8.976 22.511,4.174 7.418,-4.803 9.369,-14.458 4.357,-21.567 -0.306,-0.432 -0.605,-0.867 -0.903,-1.304 -2.963,-4.362 -7.828,-6.825 -12.87,-7.042 m 182.631,31.822 c -3.576,-0.154 -7.228,0.82 -10.332,3.011 -0.446,0.314 -0.891,0.623 -1.34,0.93 -7.293,4.978 -8.992,14.676 -3.797,21.664 5.197,6.987 15.319,8.617 22.612,3.636 0.588,-0.401 1.172,-0.806 1.752,-1.216 7.211,-5.087 8.75,-14.812 3.44,-21.719 -3.023,-3.93 -7.612,-6.103 -12.335,-6.306 m -131.86,11.283 c -6.239,-0.269 -12.349,2.949 -15.284,8.663 -3.952,7.698 -0.643,17.009 7.392,20.795 0.637,0.299 1.278,0.595 1.92,0.887 8.093,3.678 17.759,0.374 21.597,-7.377 3.837,-7.751 0.39,-17.015 -7.701,-20.691 -0.504,-0.229 -1.006,-0.459 -1.504,-0.695 -2.071,-0.975 -4.252,-1.488 -6.42,-1.582 m 68.544,11.929 c -0.758,-0.032 -1.529,-0.015 -2.306,0.057 -0.545,0.051 -1.09,0.097 -1.636,0.138 -8.926,0.684 -15.581,8.17 -14.867,16.72 0.713,8.553 8.509,14.937 17.452,14.247 0.723,-0.055 1.443,-0.116 2.165,-0.183 8.911,-0.823 15.439,-8.413 14.581,-16.952 -0.784,-7.794 -7.453,-13.685 -15.389,-14.027" /></g><g
           transform="translate(609.1528,328.2266)"
           id="g146"><path
             id="path148"
             style="fill:#bee2e5;fill-opacity:1;fill-rule:nonzero;stroke:none"
             d="m 0,0 c -0.344,-0.015 -0.69,-0.023 -1.037,-0.024 -1.119,-0.006 -2.232,-0.001 -3.343,0.013 -13.779,0.162 -24.808,10.993 -24.639,24.193 0.173,13.197 11.457,23.769 25.253,23.603 0.841,-0.009 1.684,-0.012 2.528,-0.009 C 12.539,47.829 23.752,37.171 23.809,23.972 23.863,11.106 13.294,0.572 0,0 m 98.014,25.355 c -8.99,-0.387 -17.891,3.912 -22.721,11.888 -6.911,11.418 -2.855,26.043 9.062,32.666 0.73,0.407 1.457,0.818 2.18,1.235 11.802,6.808 27.134,3.147 34.235,-8.163 7.1,-11.311 3.286,-25.998 -8.522,-32.801 -0.947,-0.547 -1.897,-1.087 -2.857,-1.618 -3.596,-1.998 -7.494,-3.041 -11.377,-3.207 m -198.741,0.909 c -4.687,-0.202 -9.488,0.859 -13.824,3.325 -0.949,0.538 -1.889,1.082 -2.828,1.634 -11.745,6.9 -15.431,21.614 -8.23,32.867 7.203,11.256 22.562,14.787 34.307,7.885 0.732,-0.429 1.467,-0.853 2.203,-1.274 11.85,-6.735 15.76,-21.396 8.73,-32.749 -4.456,-7.198 -12.237,-11.338 -20.358,-11.688 m 271.823,70.429 c -4.461,-0.193 -9.027,0.759 -13.217,2.99 -12.044,6.412 -16.379,20.963 -9.685,32.502 0.417,0.717 0.83,1.438 1.235,2.161 6.518,11.631 21.639,15.993 33.781,9.754 12.136,-6.245 16.696,-20.733 10.178,-32.364 -0.522,-0.929 -1.052,-1.854 -1.586,-2.775 -4.363,-7.523 -12.345,-11.909 -20.706,-12.268 m -344.235,1.542 c -9.228,-0.398 -18.33,4.152 -23.046,12.45 -0.531,0.935 -1.057,1.874 -1.572,2.817 -6.39,11.695 -1.674,26.137 10.533,32.26 12.204,6.122 27.278,1.602 33.671,-10.09 0.389,-0.712 0.784,-1.421 1.184,-2.124 6.589,-11.592 2.123,-26.108 -9.975,-32.422 -3.441,-1.794 -7.127,-2.732 -10.795,-2.891 m 368.924,84.895 c -0.123,-0.005 -0.246,-0.009 -0.372,-0.012 -13.773,-0.4 -25.273,9.972 -25.689,23.167 -0.027,0.816 -0.057,1.635 -0.095,2.456 -0.619,13.187 10.037,24.358 23.801,24.951 13.763,0.592 25.423,-9.617 26.042,-22.804 0.049,-1.054 0.09,-2.109 0.122,-3.159 0.413,-13.075 -10.214,-24.013 -23.809,-24.599 m -392.615,12.465 c -0.687,-0.03 -1.379,-0.031 -2.074,-0.007 -13.769,0.49 -24.517,11.58 -24.006,24.771 0.042,1.056 0.093,2.11 0.15,3.163 0.715,13.182 12.462,23.313 26.208,22.627 13.76,-0.686 24.333,-11.927 23.617,-25.109 -0.045,-0.817 -0.084,-1.636 -0.114,-2.456 -0.486,-12.522 -10.945,-22.436 -23.781,-22.989 m 375.695,73.902 c -10.116,-0.878 -20.181,4.26 -24.79,13.563 -0.363,0.731 -0.731,1.456 -1.104,2.18 -6.108,11.831 -1.047,26.167 11.301,32.018 12.345,5.851 27.313,1.007 33.421,-10.826 0.493,-0.955 0.981,-1.914 1.458,-2.879 5.906,-11.926 0.603,-26.18 -11.844,-31.839 -2.735,-1.243 -5.59,-1.969 -8.442,-2.217 m -344.098,21.365 c -5.03,-0.216 -10.172,1.018 -14.712,3.85 -11.547,7.203 -14.813,22.011 -7.293,33.072 0.609,0.899 1.23,1.792 1.857,2.684 7.712,10.936 23.221,13.813 34.637,6.424 11.415,-7.391 14.416,-22.247 6.704,-33.186 -0.471,-0.664 -0.93,-1.334 -1.389,-2.007 -4.559,-6.711 -12.044,-10.502 -19.804,-10.837 m 281.019,48.966 c -5.504,-0.236 -11.123,1.262 -15.9,4.634 -0.685,0.484 -1.37,0.959 -2.061,1.432 -11.221,7.657 -13.835,22.581 -5.842,33.333 7.996,10.752 23.572,13.259 34.794,5.595 0.904,-0.616 1.802,-1.24 2.695,-1.871 11.095,-7.828 13.464,-22.79 5.293,-33.418 -4.651,-6.049 -11.713,-9.391 -18.979,-9.705 M -87.11,357.19 c -9.6,-0.413 -19.002,4.539 -23.517,13.331 -6.082,11.845 -0.991,26.17 11.374,31.997 0.98,0.461 1.965,0.916 2.954,1.365 12.453,5.659 27.326,0.574 33.231,-11.352 5.905,-11.927 0.6,-26.18 -11.85,-31.838 -0.775,-0.352 -1.548,-0.706 -2.314,-1.068 -3.185,-1.5 -6.542,-2.291 -9.878,-2.435 m 105.469,18.356 c -1.165,-0.05 -2.351,-0.023 -3.547,0.087 -0.838,0.079 -1.677,0.148 -2.518,0.212 -13.734,1.052 -23.975,12.572 -22.877,25.73 1.098,13.159 13.095,22.98 26.855,21.92 1.112,-0.085 2.22,-0.179 3.33,-0.281 13.713,-1.268 23.757,-12.945 22.438,-26.085 -1.207,-11.992 -11.469,-21.057 -23.681,-21.583" /></g><g
           transform="translate(634.4436,542.8047)"
           id="g150"><path
             id="path152"
             style="fill:#2c2e63;fill-opacity:1;fill-rule:nonzero;stroke:none"
             d="m 0,0 c 0,-14.308 -12.105,-25.905 -27.039,-25.905 -14.932,0 -27.038,11.597 -27.038,25.905 0,14.306 12.106,25.904 27.038,25.904 C -12.105,25.904 0,14.306 0,0" /></g></g></g></g></svg>